# xmcd CD database file
#
# Track frame offsets:
#	150
#	28845
#	50452
#	73533
#	91820
#	114539
#
# Disc length: 1724 seconds
#
# Revision: 0
# Processed by: cddbd v1.5.1PL2 Copyright (c) Steve Scherf et al.
# Submitted via: CDex 1.50Beta7
#
DISCID=4906ba06
DTITLE=Alexix Korner and Peter Thorup - Live, Danmarks Radio Februar 1971
DYEAR=1971
DGENRE=Blues
TTITLE0=Mary Open The Door
TTITLE1=Will The Circle Be uNbroken
TTITLE2=The Sungod
TTITLE3=This Is my Life
TTITLE4=You Got The Power
TTITLE5=Walk On By
EXTD=YEAR: 1971
EXTT0=
EXTT1=
EXTT2=
EXTT3=
EXTT4=
EXTT5=
PLAYORDER=
